<svg width="102" height="94" viewBox="0 0 102 94" fill="none" xmlns="http://www.w3.org/2000/svg">
<g style="mix-blend-mode:overlay">
<path d="M62.2027 79.6139C59.8357 79.8199 57.4497 79.5445 55.1977 78.8052C52.9447 78.0659 50.8757 76.8788 49.1217 75.3197C47.3677 73.7606 45.9667 71.8636 45.0077 69.7495C44.0497 67.6353 43.5547 65.3503 43.5547 63.04C43.5547 60.7297 44.0497 58.4447 45.0077 56.3305C45.9667 54.2163 47.3677 52.3192 49.1217 50.7601C50.8757 49.201 52.9447 48.0141 55.1977 47.2748C57.4497 46.5355 59.8357 46.2601 62.2027 46.4661C63.1787 46.3681 64.1607 46.3681 65.1367 46.4661H66.3637C69.9307 47.3508 73.1067 49.3333 75.4187 52.1174C77.7297 54.9016 79.0527 58.3379 79.1887 61.9129C79.2077 62.0629 79.1937 62.2152 79.1477 62.3596C79.1017 62.504 79.0247 62.6373 78.9217 62.7503C78.8177 62.8633 78.6907 62.9535 78.5487 63.0149C78.4067 63.0763 78.2527 63.1073 78.0967 63.1061C77.8007 63.1066 77.5157 62.9971 77.3007 62.7998C77.0847 62.6026 76.9547 62.3329 76.9377 62.0456C76.7667 58.9762 75.5987 56.0384 73.6007 53.6557C71.6017 51.2729 68.8777 49.568 65.8187 48.7865H64.7267C61.3997 48.2306 57.9767 48.7864 55.0157 50.3635C52.0557 51.9407 49.7317 54.4461 48.4237 57.4712C48.4237 58.1341 47.9467 58.7306 47.8097 59.3936C46.9517 62.5792 47.2437 65.9546 48.6367 68.9562C50.0307 71.9577 52.4417 74.4038 55.4677 75.8858C58.4937 77.3678 61.9507 77.7961 65.2627 77.0991C68.5737 76.4021 71.5397 74.6219 73.6627 72.0561C73.8587 71.8906 74.1057 71.7937 74.3647 71.7807C74.6237 71.7677 74.8797 71.8394 75.0917 71.9845C75.3037 72.1295 75.4597 72.3396 75.5347 72.5809C75.6097 72.8222 75.5987 73.0809 75.5047 73.3157C73.9197 75.2726 71.9007 76.8557 69.5967 77.9464C67.2927 79.0371 64.7657 79.6072 62.2027 79.6139Z" fill="#a24900"/>
<path d="M62.2022 69.3382H60.5652C58.9202 68.8587 57.5212 67.7937 56.6492 66.3558C55.7762 64.9179 55.4942 63.213 55.8582 61.5817C55.8292 61.3173 55.8292 61.0506 55.8582 60.7862C55.9102 60.6464 55.9922 60.5186 56.0972 60.4113C56.2032 60.304 56.3312 60.2195 56.4722 60.1632C56.6142 60.107 56.7662 60.0802 56.9192 60.0847C57.0712 60.0892 57.2212 60.1251 57.3592 60.1895C57.4942 60.2406 57.6182 60.3173 57.7222 60.4153C57.8272 60.5133 57.9102 60.6306 57.9672 60.7603C58.0242 60.8899 58.0542 61.0293 58.0552 61.1704C58.0562 61.3114 58.0282 61.4512 57.9732 61.5817V62.1783C57.9402 62.509 57.9402 62.842 57.9732 63.1727C57.9692 64.1907 58.3472 65.1751 59.0372 65.941C59.7282 66.7069 60.6822 67.2015 61.7212 67.3318C62.7602 67.462 63.8122 67.2191 64.6792 66.6485C65.5472 66.078 66.1702 65.2192 66.4322 64.2335C66.4652 63.8806 66.4652 63.5256 66.4322 63.1727C66.4102 62.2546 66.0882 61.3672 65.5112 60.6397C64.9342 59.9122 64.1342 59.3829 63.2262 59.1288H62.8852C62.5952 59.076 62.3392 58.9136 62.1732 58.6774C62.0062 58.4412 61.9442 58.1505 61.9982 57.8691C62.0522 57.5878 62.2192 57.3388 62.4622 57.1772C62.7052 57.0156 63.0042 56.9545 63.2942 57.0073H63.7712C65.4172 57.4868 66.8152 58.5517 67.6882 59.9896C68.5602 61.4275 68.8432 63.1324 68.4782 64.7637C68.0752 66.1087 67.2442 67.2952 66.1052 68.1528C64.9652 69.0103 63.5752 69.4948 62.1342 69.537L62.2022 69.3382ZM93.1032 78.4208C91.2332 78.436 89.4192 77.8011 87.9872 76.6307C87.8322 76.4426 87.7482 76.2087 87.7482 75.9677C87.7482 75.7267 87.8322 75.493 87.9872 75.3049C89.7722 71.815 90.7722 67.9956 90.9202 64.1009C90.9462 63.8567 91.0542 63.6274 91.2262 63.4479C91.3992 63.2684 91.6272 63.1484 91.8752 63.1064C92.8232 62.9413 93.7932 62.9413 94.7412 63.1064H95.3542C97.2172 63.5918 98.8362 64.7164 99.9122 66.272C100.987 67.8276 101.447 69.7092 101.206 71.5687C100.964 73.4282 100.039 75.1399 98.5992 76.3873C97.1602 77.6348 95.3052 78.3336 93.3762 78.3545L93.1032 78.4208ZM90.1702 75.4374C90.8082 75.818 91.5172 76.0703 92.2572 76.1795C92.9972 76.2888 93.7512 76.2528 94.4762 76.0735C95.2022 75.8943 95.8822 75.5755 96.4782 75.136C97.0742 74.6965 97.5742 74.1452 97.9472 73.5148C98.2822 73.0838 98.5152 72.5856 98.6292 72.0563C98.6622 71.5928 98.6622 71.1276 98.6292 70.6641C98.6242 69.4506 98.2072 68.2726 97.4422 67.3134C96.6772 66.3541 95.6082 65.6676 94.3992 65.3606H93.9222H92.7622C92.4762 68.9143 91.5532 72.3919 90.0342 75.6363L90.1702 75.4374Z" fill="#a24900"/>
<path d="M62.2025 92.873C54.0425 92.873 46.2175 89.723 40.4485 84.116C34.6785 78.5085 31.4375 70.9035 31.4375 62.9737C31.4545 59.0637 32.2425 55.193 33.7565 51.5708C34.1665 50.6427 34.5755 49.7808 35.0535 48.8527C35.2095 48.6003 35.4605 48.4174 35.7545 48.343C36.0475 48.2687 36.3585 48.3088 36.6215 48.4549C36.7535 48.518 36.8715 48.6064 36.9675 48.7147C37.0635 48.823 37.1355 48.9491 37.1805 49.0853C37.2255 49.2216 37.2405 49.3651 37.2265 49.5074C37.2135 49.6497 37.1695 49.7878 37.0995 49.9134C36.6215 50.7201 36.2115 51.5626 35.8715 52.4327C35.3905 53.6243 34.9805 54.8416 34.6435 56.0789C33.7015 59.5963 33.4835 63.2602 34.0025 66.8598C34.5225 70.4594 35.7685 73.9238 37.6705 77.0536C39.5725 80.183 42.0915 82.917 45.0845 85.097C48.0765 87.277 51.4835 88.861 55.1075 89.757C59.6925 90.917 64.5065 90.917 69.0915 89.757C69.2355 89.718 69.3855 89.707 69.5335 89.726C69.6805 89.745 69.8235 89.793 69.9505 89.868C70.0785 89.943 70.1895 90.042 70.2765 90.16C70.3635 90.277 70.4245 90.411 70.4555 90.553C70.4975 90.696 70.5085 90.846 70.4895 90.995C70.4715 91.143 70.4225 91.285 70.3455 91.415C70.2695 91.544 70.1685 91.658 70.0465 91.749C69.9245 91.84 69.7855 91.906 69.6375 91.945C67.2055 92.533 64.7075 92.822 62.2025 92.807V92.873ZM79.6645 87.37C79.3575 87.37 79.0625 87.252 78.8445 87.04C78.6275 86.829 78.5055 86.542 78.5055 86.243C78.5135 86.074 78.5605 85.909 78.6425 85.76C78.7255 85.61 78.8415 85.481 78.9825 85.382C82.4545 82.921 85.3075 79.728 87.3285 76.0422C89.3485 72.3564 90.4835 68.2738 90.6475 64.1008C90.6475 63.7693 90.6475 63.3714 90.6475 62.9737C90.5855 56.8766 88.4525 50.9703 84.5785 46.1742C80.7045 41.3781 75.3075 37.9612 69.2285 36.4554L67.0455 35.9913C62.9715 35.2984 58.7905 35.4793 54.7965 36.5214C50.8015 37.5635 47.0895 39.4416 43.9205 42.0242C43.6855 42.2176 43.3815 42.3123 43.0745 42.2875C42.7665 42.2626 42.4825 42.1203 42.2835 41.8917C42.0845 41.6631 41.9875 41.3671 42.0125 41.0687C42.0385 40.7703 42.1845 40.4941 42.4205 40.3007C45.8465 37.494 49.8615 35.4467 54.1845 34.3018C58.5085 33.1568 63.0365 32.9417 67.4545 33.6711L69.7735 34.2014C76.3855 35.8369 82.2475 39.5663 86.4355 44.8006C90.6225 50.035 92.8965 56.4758 92.8985 63.1062V64.3658C92.7325 68.8075 91.5435 73.1565 89.4185 77.092C87.2935 81.028 84.2865 84.449 80.6195 87.105C80.5215 87.255 80.3695 87.365 80.1935 87.413C80.0185 87.462 79.8295 87.447 79.6645 87.37Z" fill="#a24900"/>
<path d="M34.8483 53.0957H34.2343L16.9763 42.4884C16.8153 42.4284 16.6703 42.3344 16.5513 42.2131C16.4323 42.0917 16.3433 41.9461 16.2893 41.787C16.2353 41.6278 16.2193 41.459 16.2413 41.2929C16.2623 41.1268 16.3223 40.9675 16.4153 40.8266C16.5083 40.6857 16.6333 40.5669 16.7793 40.4786C16.9263 40.3903 17.0913 40.3347 17.2623 40.3161C17.4333 40.2975 17.6063 40.3161 17.7693 40.3707C17.9323 40.4254 18.0813 40.5148 18.2043 40.6321L34.3023 50.5101C36.5363 45.847 39.9693 41.8227 44.2713 38.8265C48.5733 35.8302 53.5983 33.9632 58.8593 33.4059C58.7723 33.286 58.7123 33.1497 58.6823 33.006C58.6523 32.8622 58.6543 32.7141 58.6863 32.5708C58.7183 32.4275 58.7803 32.2923 58.8683 32.1736C58.9573 32.0549 59.0703 31.9552 59.2003 31.8811C59.3383 31.8164 59.4903 31.7829 59.6433 31.7829C59.7973 31.7829 59.9493 31.8164 60.0873 31.8811L67.6593 33.7373C67.9493 33.8292 68.1933 34.0226 68.3443 34.28C68.4963 34.5373 68.5433 34.8401 68.4773 35.1295C68.3983 35.3927 68.2223 35.6187 67.9843 35.7652C67.7453 35.9116 67.4603 35.9686 67.1813 35.9252C60.7863 34.84 54.2013 35.903 48.5103 38.9395C42.8193 41.976 38.3623 46.805 35.8713 52.6316C35.8133 52.7758 35.7213 52.905 35.6023 53.0085C35.4843 53.1121 35.3423 53.1873 35.1893 53.2283L34.8483 53.0957ZM7.97131 36.6544H7.35733L1.55933 33.1407C1.35733 33.0195 1.20132 32.8374 1.11432 32.622C1.02832 32.4066 1.01734 32.1697 1.08234 31.9474L4.49234 19.0861C4.55834 18.7971 4.73832 18.5449 4.99332 18.3836C5.24832 18.2224 5.55833 18.1651 5.85733 18.2242L30.1413 24.3235C30.2873 24.3542 30.4243 24.4135 30.5453 24.4979C30.6673 24.5823 30.7693 24.6901 30.8453 24.8143C30.9223 24.9385 30.9723 25.0767 30.9913 25.2204C31.0113 25.364 31.0003 25.5099 30.9593 25.6493L29.5273 31.0192L36.3483 32.6766L37.7813 27.3067C37.8133 27.1651 37.8743 27.0313 37.9603 26.9136C38.0473 26.7958 38.1583 26.6966 38.2863 26.622C38.4143 26.5475 38.5563 26.4993 38.7043 26.4802C38.8513 26.4611 39.0023 26.4716 39.1453 26.5111L49.2413 29.0304C49.3893 29.0688 49.5283 29.1353 49.6503 29.2263C49.7713 29.3172 49.8733 29.4308 49.9493 29.5603C50.0253 29.6898 50.0744 29.8327 50.0934 29.9807C50.1124 30.1287 50.1014 30.2789 50.0594 30.4226C49.9794 30.6992 49.7933 30.9357 49.5403 31.0835C49.2863 31.2314 48.9843 31.2796 48.6953 31.2181L39.6913 28.7652L38.2583 34.0689C38.1933 34.3579 38.0133 34.6101 37.7583 34.7714C37.5033 34.9326 37.1923 34.9897 36.8943 34.9306L28.0953 32.6766C27.9493 32.6459 27.8113 32.5866 27.6903 32.5022C27.5693 32.4178 27.4673 32.31 27.3903 32.1858C27.3133 32.0615 27.2643 31.9233 27.2443 31.7797C27.2243 31.6361 27.2353 31.4902 27.2763 31.3508L28.6403 25.9809L6.60733 20.4782L3.67432 31.4833L8.79031 34.5992C8.92031 34.6734 9.03331 34.7731 9.12231 34.8918C9.21031 35.0105 9.27232 35.1456 9.30432 35.2889C9.33632 35.4322 9.33832 35.5804 9.30832 35.7241C9.27832 35.8678 9.21832 36.0041 9.13132 36.1241C9.02032 36.32 8.84832 36.4768 8.64032 36.572C8.43132 36.6673 8.19831 36.6961 7.97131 36.6544ZM99.9243 94H81.7113C81.4033 94 81.1083 93.881 80.8913 93.67C80.6733 93.459 80.5513 93.172 80.5513 92.873C80.5513 92.574 80.6733 92.288 80.8913 92.076C81.1083 91.865 81.4033 91.746 81.7113 91.746H99.9243C100.076 91.746 100.227 91.775 100.368 91.832C100.508 91.888 100.636 91.972 100.744 92.076C100.852 92.181 100.937 92.305 100.995 92.442C101.053 92.578 101.083 92.725 101.083 92.873C101.083 93.021 101.053 93.168 100.995 93.304C100.937 93.441 100.852 93.565 100.744 93.67C100.636 93.775 100.508 93.858 100.368 93.914C100.227 93.971 100.076 94 99.9243 94ZM70.3193 94H2.10532C1.79732 94 1.50234 93.881 1.28534 93.67C1.06834 93.459 0.945312 93.172 0.945312 92.873C0.945312 92.574 1.06834 92.288 1.28534 92.076C1.50234 91.865 1.79732 91.746 2.10532 91.746H70.3193C70.4713 91.746 70.6223 91.775 70.7633 91.832C70.9033 91.888 71.0313 91.972 71.1393 92.076C71.2473 92.181 71.3324 92.305 71.3904 92.442C71.4494 92.578 71.4793 92.725 71.4793 92.873C71.4793 93.021 71.4494 93.168 71.3904 93.304C71.3324 93.441 71.2473 93.565 71.1393 93.67C71.0313 93.775 70.9033 93.858 70.7633 93.914C70.6223 93.971 70.4713 94 70.3193 94ZM40.7143 18.6883C40.4843 18.7093 40.2533 18.6588 40.0543 18.5441C39.8563 18.4294 39.7003 18.2564 39.6093 18.05C39.5183 17.8436 39.4973 17.6146 39.5483 17.3957C39.6003 17.1768 39.7213 16.9794 39.8963 16.832L49.0363 7.9485C49.2503 7.7575 49.5303 7.6515 49.8213 7.6515C50.1113 7.6515 50.3913 7.7575 50.6053 7.9485C50.7213 8.048 50.8143 8.1704 50.8783 8.3076C50.9423 8.4447 50.9753 8.5935 50.9753 8.744C50.9753 8.8945 50.9423 9.0432 50.8783 9.1804C50.8143 9.3175 50.7213 9.44 50.6053 9.5395L41.5333 18.4231C41.3053 18.6105 41.0123 18.7055 40.7143 18.6883ZM27.0713 18.6883C26.8303 18.7807 26.5623 18.7807 26.3213 18.6883L17.1803 9.8047C16.9843 9.5899 16.8793 9.3101 16.8883 9.0228C16.8973 8.7355 17.0183 8.4623 17.2273 8.259C17.4363 8.0558 17.7173 7.9379 18.0133 7.9294C18.3093 7.921 18.5963 8.0226 18.8173 8.2135L27.8903 17.0973C28.0063 17.1968 28.0993 17.3192 28.1633 17.4564C28.2263 17.5936 28.2593 17.7423 28.2593 17.8928C28.2593 18.0433 28.2263 18.192 28.1633 18.3292C28.0993 18.4664 28.0063 18.5888 27.8903 18.6883C27.7503 18.7486 27.5993 18.7798 27.4463 18.7798C27.2943 18.7798 27.1433 18.7486 27.0033 18.6883H27.0713ZM33.8933 16.5004C33.7383 16.5102 33.5833 16.4879 33.4373 16.4347C33.2923 16.3815 33.1603 16.2988 33.0503 16.1921C32.9413 16.0855 32.8563 15.9572 32.8013 15.816C32.7463 15.6749 32.7233 15.5241 32.7333 15.3735V2.1144C32.7333 1.8155 32.8553 1.5288 33.0733 1.3175C33.2903 1.1061 33.5853 0.987305 33.8933 0.987305C34.1883 1.0042 34.4663 1.1304 34.6693 1.3399C34.8723 1.5495 34.9853 1.8267 34.9843 2.1144V15.3735C34.9933 15.5183 34.9723 15.6634 34.9213 15.7998C34.8713 15.9363 34.7923 16.0612 34.6903 16.1668C34.5873 16.2725 34.4643 16.3565 34.3273 16.4139C34.1903 16.4713 34.0423 16.5007 33.8933 16.5004Z" fill="#a24900"/>
</g>
</svg>
 