<svg width="101" height="94" viewBox="0 0 101 94" fill="none" xmlns="http://www.w3.org/2000/svg">
<g style="mix-blend-mode:overlay">
<path d="M61.258 78.6266C58.8903 78.8326 56.5043 78.5572 54.2522 77.8179C52 77.0786 49.9309 75.8915 48.1766 74.3324C46.4224 72.7733 45.0214 70.8763 44.0629 68.7622C43.1044 66.648 42.6094 64.363 42.6094 62.0527C42.6094 59.7424 43.1044 57.4574 44.0629 55.3432C45.0214 53.229 46.4224 51.3319 48.1766 49.7728C49.9309 48.2137 52 47.0267 54.2522 46.2874C56.5043 45.5481 58.8903 45.2728 61.258 45.4788C62.2331 45.3808 63.216 45.3808 64.1911 45.4788H65.419C68.9856 46.3635 72.162 48.346 74.4734 51.1301C76.7848 53.9143 78.1072 57.3506 78.2432 60.9256C78.2627 61.0756 78.2489 61.2279 78.2028 61.3723C78.1567 61.5167 78.0795 61.65 77.9761 61.763C77.8728 61.876 77.7458 61.9662 77.6036 62.0276C77.4614 62.089 77.3074 62.12 77.1519 62.1188C76.8558 62.1193 76.5707 62.0098 76.3551 61.8125C76.1395 61.6153 76.0097 61.3456 75.9922 61.0583C75.8218 57.9889 74.6533 55.0511 72.6551 52.6684C70.657 50.2856 67.9322 48.5807 64.8733 47.7992H63.7819C60.4545 47.2433 57.0315 47.7991 54.0708 49.3762C51.1102 50.9534 48.7866 53.4588 47.4787 56.4839C47.4787 57.1468 47.0013 57.7433 46.8648 58.4063C46.0063 61.5919 46.2982 64.9673 47.6919 67.9689C49.0856 70.9704 51.4968 73.4165 54.5226 74.8985C57.5484 76.3805 61.0057 76.8088 64.3173 76.1118C67.6289 75.4148 70.5941 73.6346 72.7179 71.0688C72.9135 70.9033 73.1606 70.8064 73.4196 70.7934C73.6786 70.7804 73.9346 70.8521 74.1467 70.9972C74.3588 71.1422 74.5147 71.3523 74.5896 71.5936C74.6644 71.8349 74.6539 72.0936 74.5597 72.3284C72.9749 74.2853 70.9551 75.8684 68.6515 76.9591C66.348 78.0498 63.8204 78.6199 61.258 78.6266Z" fill="#2E2C74"/>
<path d="M61.257 68.3508H59.6199C57.9746 67.8714 56.5761 66.8064 55.7035 65.3685C54.831 63.9306 54.5487 62.2257 54.9131 60.5944C54.8838 60.33 54.8838 60.0633 54.9131 59.7989C54.9648 59.6591 55.0462 59.5313 55.152 59.424C55.2577 59.3167 55.3854 59.2322 55.5269 59.1759C55.6684 59.1197 55.8204 59.0929 55.9732 59.0974C56.126 59.1019 56.2761 59.1378 56.4138 59.2022C56.5491 59.2533 56.6725 59.33 56.7769 59.428C56.8812 59.526 56.9644 59.6433 57.0216 59.773C57.0787 59.9026 57.1088 60.042 57.1098 60.1831C57.1109 60.3241 57.0829 60.4639 57.0277 60.5944V61.191C56.9944 61.5217 56.9944 61.8547 57.0277 62.1854C57.0235 63.2034 57.402 64.1878 58.0921 64.9537C58.7822 65.7196 59.7363 66.2142 60.7752 66.3445C61.8141 66.4747 62.8663 66.2318 63.7338 65.6612C64.6013 65.0907 65.2245 64.2319 65.4863 63.2462C65.5194 62.8933 65.5194 62.5383 65.4863 62.1854C65.465 61.2673 65.1425 60.3799 64.5657 59.6524C63.989 58.9249 63.1883 58.3956 62.2802 58.1415H61.9391C61.6497 58.0887 61.3937 57.9263 61.2274 57.6901C61.0611 57.4539 60.9981 57.1632 61.0524 56.8818C61.1067 56.6005 61.2737 56.3515 61.5167 56.1899C61.7598 56.0283 62.059 55.9672 62.3485 56.02H62.8259C64.4712 56.4995 65.8698 57.5644 66.7423 59.0023C67.6148 60.4402 67.8971 62.1451 67.5327 63.7764C67.1298 65.1214 66.2988 66.3079 65.1591 67.1655C64.0194 68.023 62.6295 68.5075 61.1888 68.5497L61.257 68.3508ZM92.158 77.4335C90.2876 77.4487 88.4732 76.8138 87.0419 75.6434C86.8869 75.4553 86.8025 75.2214 86.8025 74.9804C86.8025 74.7394 86.8869 74.5057 87.0419 74.3176C88.8271 70.8277 89.8269 67.0083 89.9751 63.1136C90.0011 62.8694 90.1085 62.6401 90.2809 62.4606C90.4533 62.2811 90.6812 62.1611 90.9301 62.119C91.8775 61.954 92.8477 61.954 93.7951 62.119H94.409C96.2717 62.6045 97.8905 63.7291 98.9661 65.2847C100.042 66.8403 100.501 68.7219 100.26 70.5814C100.019 72.4409 99.0931 74.1526 97.6538 75.4C96.2145 76.6475 94.3591 77.3463 92.4308 77.3672L92.158 77.4335ZM89.2247 74.4501C89.8623 74.8307 90.5719 75.083 91.3115 75.1922C92.0512 75.3015 92.806 75.2655 93.5311 75.0862C94.2562 74.907 94.9368 74.5882 95.5329 74.1487C96.1289 73.7092 96.6282 73.1579 97.0011 72.5275C97.3369 72.0965 97.57 71.5983 97.6833 71.069C97.717 70.6055 97.717 70.1403 97.6833 69.6768C97.6788 68.4633 97.2616 67.2853 96.4967 66.326C95.7318 65.3668 94.6621 64.6803 93.454 64.3733H92.9765H91.8169C91.5309 67.927 90.6075 71.4046 89.0884 74.649L89.2247 74.4501Z" fill="#2E2C74"/>
<path d="M61.2568 91.8857C53.0975 91.8857 45.2724 88.7356 39.5029 83.1284C33.7335 77.5212 30.4922 69.9161 30.4922 61.9864C30.5093 58.0764 31.2966 54.2057 32.8115 50.5835C33.2208 49.6554 33.6301 48.7935 34.1076 47.8654C34.2638 47.613 34.5154 47.4301 34.8086 47.3557C35.1019 47.2814 35.4134 47.3215 35.6765 47.4676C35.8085 47.5307 35.9261 47.6191 36.0221 47.7274C36.1181 47.8357 36.1905 47.9618 36.2351 48.098C36.2797 48.2343 36.2955 48.3778 36.2816 48.5201C36.2676 48.6624 36.2242 48.8005 36.154 48.9261C35.6764 49.7328 35.2659 50.5752 34.9262 51.4454C34.4455 52.637 34.0355 53.8543 33.6983 55.0916C32.7557 58.609 32.5379 62.2729 33.0573 65.8725C33.5767 69.4721 34.8232 72.9365 36.725 76.0663C38.6268 79.1961 41.1464 81.9295 44.1389 84.1096C47.1315 86.2898 50.5379 87.8736 54.1624 88.7698C58.7474 89.9294 63.5614 89.9294 68.1463 88.7698C68.2897 88.7303 68.44 88.7198 68.5878 88.7389C68.7355 88.758 68.8777 88.8062 69.0056 88.8807C69.1334 88.9552 69.2442 89.0545 69.331 89.1722C69.4179 89.29 69.479 89.4238 69.5106 89.5653C69.5519 89.709 69.5634 89.8592 69.5445 90.0072C69.5256 90.1552 69.4767 90.2981 69.4006 90.4276C69.3244 90.5571 69.2226 90.6707 69.101 90.7617C68.9794 90.8526 68.8404 90.9191 68.6921 90.9575C66.2603 91.5453 63.7625 91.8349 61.2568 91.8194V91.8857ZM78.7195 86.3831C78.412 86.3831 78.117 86.2645 77.8995 86.0531C77.682 85.8417 77.5599 85.5551 77.5599 85.2562C77.5677 85.0869 77.6146 84.9214 77.6973 84.7722C77.78 84.623 77.8962 84.4938 78.0373 84.3943C81.5092 81.9337 84.3625 78.7407 86.3828 75.0549C88.403 71.3691 89.5378 67.2865 89.702 63.1135C89.702 62.782 89.702 62.3841 89.702 61.9864C89.6405 55.8893 87.5068 49.983 83.6329 45.1869C79.759 40.3908 74.3623 36.9739 68.2828 35.4681L66.0999 35.004C62.0259 34.3111 57.8454 34.492 53.8509 35.5341C49.8564 36.5762 46.1446 38.4543 42.9754 41.0369C42.7402 41.2303 42.4356 41.325 42.1286 41.3001C41.8216 41.2753 41.5373 41.133 41.3383 40.9044C41.1393 40.6758 41.0419 40.3798 41.0675 40.0814C41.093 39.783 41.2395 39.5068 41.4746 39.3134C44.9011 36.5067 48.9159 34.4594 53.2394 33.3144C57.5629 32.1695 62.0914 31.9544 66.5093 32.6838L68.8285 33.2141C75.4399 34.8496 81.3023 38.579 85.4899 43.8133C89.6775 49.0477 91.9516 55.4885 91.953 62.1189V63.3785C91.7875 67.8202 90.5983 72.1692 88.4732 76.1047C86.3482 80.0403 83.3414 83.4622 79.6745 86.118C79.5759 86.2678 79.4244 86.3773 79.2486 86.4262C79.0727 86.475 78.8846 86.4596 78.7195 86.3831Z" fill="#2E2C74"/>
<path d="M33.9023 52.1084H33.2884L16.0302 41.5011C15.8693 41.4411 15.7242 41.3471 15.6053 41.2257C15.4865 41.1044 15.3971 40.9588 15.3435 40.7997C15.2898 40.6405 15.2733 40.4717 15.2952 40.3056C15.3171 40.1395 15.3767 39.9801 15.4699 39.8393C15.5631 39.6984 15.6875 39.5796 15.8339 39.4913C15.9803 39.403 16.1452 39.3474 16.3165 39.3288C16.4877 39.3102 16.6611 39.3288 16.824 39.3834C16.9869 39.4381 17.1352 39.5275 17.2581 39.6448L33.3566 49.5228C35.5903 44.8597 39.0241 40.8354 43.3259 37.8391C47.6278 34.8428 52.6522 32.9759 57.9136 32.4186C57.8269 32.2987 57.7667 32.1624 57.7369 32.0187C57.707 31.8749 57.7081 31.7268 57.7402 31.5835C57.7722 31.4402 57.8345 31.305 57.9231 31.1863C58.0116 31.0676 58.1245 30.9679 58.2547 30.8938C58.393 30.8291 58.5446 30.7956 58.6981 30.7956C58.8516 30.7956 59.0032 30.8291 59.1415 30.8938L66.7133 32.75C67.0032 32.8418 67.2477 33.0353 67.399 33.2927C67.5503 33.55 67.5976 33.8528 67.5318 34.1422C67.4523 34.4053 67.2769 34.6314 67.0383 34.7779C66.7997 34.9243 66.5144 34.9813 66.2357 34.9379C59.8404 33.8527 53.2555 34.9157 47.5647 37.9522C41.8739 40.9887 37.4163 45.8177 34.9255 51.6443C34.8675 51.7885 34.7755 51.9176 34.6571 52.0212C34.5387 52.1248 34.397 52.2 34.2433 52.241L33.9023 52.1084ZM7.02603 35.6671H6.41203L0.613901 32.1534C0.411411 32.0322 0.255124 31.8501 0.168932 31.6347C0.0827402 31.4193 0.071311 31.1824 0.136353 30.9601L3.54705 18.0988C3.61254 17.8098 3.79236 17.5576 4.0476 17.3963C4.30285 17.2351 4.61303 17.1778 4.91131 17.2369L29.1956 23.3362C29.3413 23.3669 29.4789 23.4262 29.6001 23.5106C29.7212 23.595 29.8232 23.7028 29.8999 23.827C29.9766 23.9512 30.0263 24.0894 30.046 24.2331C30.0656 24.3767 30.0548 24.5226 30.0141 24.662L28.5816 30.0319L35.403 31.6893L36.8355 26.3194C36.8671 26.1778 36.9282 26.044 37.0151 25.9263C37.1019 25.8085 37.2127 25.7093 37.3405 25.6347C37.4684 25.5602 37.6106 25.512 37.7583 25.4929C37.9061 25.4738 38.0563 25.4843 38.1998 25.5238L48.2954 28.0431C48.4437 28.0815 48.5827 28.148 48.7044 28.2389C48.826 28.3299 48.9278 28.4435 49.0039 28.573C49.0801 28.7025 49.129 28.8454 49.1479 28.9934C49.1668 29.1414 49.1553 29.2916 49.114 29.4353C49.0339 29.7119 48.8479 29.9483 48.5943 30.0962C48.3407 30.2441 48.0387 30.2922 47.7498 30.2308L38.7455 27.7779L37.313 33.0816C37.2475 33.3706 37.0677 33.6228 36.8125 33.7841C36.5573 33.9453 36.247 34.0024 35.9487 33.9433L27.1491 31.6893C27.0035 31.6586 26.8658 31.5993 26.7447 31.5149C26.6235 31.4305 26.5214 31.3227 26.4447 31.1985C26.368 31.0742 26.3183 30.936 26.2986 30.7924C26.279 30.6488 26.2898 30.5029 26.3305 30.3635L27.6949 24.9936L5.66167 19.4909L2.72852 30.496L7.84457 33.6119C7.97472 33.6861 8.08763 33.7857 8.17618 33.9045C8.26474 34.0232 8.32701 34.1583 8.35906 34.3016C8.39111 34.4449 8.39225 34.5931 8.3624 34.7368C8.33254 34.8805 8.27238 35.0168 8.18566 35.1368C8.07461 35.3327 7.90265 35.4895 7.69437 35.5847C7.48609 35.68 7.25218 35.7088 7.02603 35.6671ZM98.9784 93.0127H80.7653C80.4578 93.0127 80.1628 92.8941 79.9453 92.6827C79.7279 92.4714 79.6057 92.1847 79.6057 91.8858C79.6057 91.5869 79.7279 91.3002 79.9453 91.0889C80.1628 90.8775 80.4578 90.7587 80.7653 90.7587H98.9784C99.1307 90.7587 99.2815 90.7878 99.4222 90.8445C99.5629 90.9011 99.6908 90.9842 99.7984 91.0889C99.9061 91.1935 99.9915 91.3177 100.05 91.4544C100.108 91.5912 100.138 91.7378 100.138 91.8858C100.138 92.0338 100.108 92.1804 100.05 92.3171C99.9915 92.4539 99.9061 92.5781 99.7984 92.6827C99.6908 92.7874 99.5629 92.8703 99.4222 92.9269C99.2815 92.9836 99.1307 93.0127 98.9784 93.0127ZM69.3736 93.0127H1.15963C0.85207 93.0127 0.557108 92.8941 0.339633 92.6827C0.122159 92.4714 0 92.1847 0 91.8858C0 91.5869 0.122159 91.3002 0.339633 91.0889C0.557108 90.8775 0.85207 90.7587 1.15963 90.7587H69.3736C69.5259 90.7587 69.6766 90.7878 69.8173 90.8445C69.958 90.9011 70.0859 90.9842 70.1936 91.0889C70.3013 91.1935 70.3867 91.3177 70.445 91.4544C70.5032 91.5912 70.5332 91.7378 70.5332 91.8858C70.5332 92.0338 70.5032 92.1804 70.445 92.3171C70.3867 92.4539 70.3013 92.5781 70.1936 92.6827C70.0859 92.7874 69.958 92.8703 69.8173 92.9269C69.6766 92.9836 69.5259 93.0127 69.3736 93.0127ZM39.7687 17.701C39.5386 17.722 39.3077 17.6715 39.1091 17.5568C38.9104 17.4421 38.7544 17.2691 38.6634 17.0627C38.5724 16.8563 38.5512 16.6273 38.6027 16.4084C38.6542 16.1895 38.7758 15.9921 38.9501 15.8447L48.0908 6.96116C48.3047 6.77015 48.5847 6.66415 48.8753 6.66415C49.1658 6.66415 49.4458 6.77015 49.6598 6.96116C49.7759 7.0607 49.8689 7.18311 49.9326 7.32027C49.9963 7.45744 50.0293 7.60618 50.0293 7.75667C50.0293 7.90716 49.9963 8.05591 49.9326 8.19307C49.8689 8.33024 49.7759 8.45265 49.6598 8.55219L40.5873 17.4358C40.3597 17.6232 40.0665 17.7182 39.7687 17.701ZM26.1259 17.701C25.8848 17.7934 25.6166 17.7934 25.3755 17.701L16.2349 8.81743C16.0384 8.60258 15.9339 8.32277 15.9426 8.03547C15.9513 7.74816 16.0726 7.47496 16.2817 7.27172C16.4908 7.06847 16.7719 6.9506 17.0675 6.94214C17.3632 6.93368 17.651 7.03526 17.872 7.22619L26.9445 16.11C27.0606 16.2095 27.1536 16.3319 27.2173 16.4691C27.281 16.6063 27.314 16.755 27.314 16.9055C27.314 17.056 27.281 17.2047 27.2173 17.3419C27.1536 17.4791 27.0606 17.6015 26.9445 17.701C26.8049 17.7613 26.6538 17.7925 26.5011 17.7925C26.3483 17.7925 26.1973 17.7613 26.0577 17.701H26.1259ZM32.9473 15.5131C32.7924 15.5229 32.6372 15.5006 32.492 15.4474C32.3467 15.3942 32.2148 15.3115 32.1051 15.2048C31.9953 15.0981 31.9102 14.9699 31.8555 14.8287C31.8008 14.6875 31.7776 14.5368 31.7876 14.3862V1.12711C31.7876 0.828208 31.9098 0.541541 32.1273 0.330183C32.3447 0.118825 32.6397 0 32.9473 0C33.2428 0.016927 33.5206 0.143089 33.7235 0.35264C33.9265 0.562192 34.0392 0.839348 34.0387 1.12711V14.3862C34.048 14.531 34.0267 14.6761 33.976 14.8125C33.9254 14.949 33.8465 15.0739 33.7442 15.1795C33.642 15.2851 33.5184 15.3691 33.3813 15.4266C33.2442 15.484 33.0965 15.5134 32.9473 15.5131Z" fill="#2E2C74"/>
</g>
</svg>
