<svg width="101" height="82" viewBox="0 0 101 82" fill="none" xmlns="http://www.w3.org/2000/svg">
<g style="mix-blend-mode:overlay">
<path d="M50.9776 66.9051C44.0374 66.943 37.1481 65.7527 30.6466 63.3924C27.4125 62.3158 24.5958 60.3013 22.5762 57.6206C20.5566 54.94 19.4311 51.7219 19.3516 48.4004V38.113C19.3516 37.8634 19.4537 37.6242 19.6352 37.4477C19.8168 37.2713 20.063 37.1721 20.3198 37.1721C20.4494 37.1627 20.5795 37.1808 20.7014 37.2247C20.8232 37.2687 20.9339 37.3376 21.0258 37.4269C21.1177 37.5162 21.1887 37.6238 21.2339 37.7422C21.2792 37.8606 21.2976 37.987 21.2879 38.113V48.4004C21.3868 51.3743 22.4335 54.2451 24.2833 56.616C26.1332 58.9869 28.695 60.7409 31.6148 61.6358C44.2932 66.2157 58.2429 66.2157 70.9213 61.6358C73.7859 60.6957 76.283 58.921 78.073 56.5528C79.863 54.1847 80.859 51.3381 80.9255 48.4004V38.113C80.9255 37.8634 81.0275 37.6242 81.2091 37.4477C81.3906 37.2713 81.6369 37.1721 81.8936 37.1721C82.0233 37.1627 82.1534 37.1808 82.2752 37.2247C82.3971 37.2687 82.5077 37.3376 82.5996 37.4269C82.6915 37.5162 82.7625 37.6238 82.8077 37.7422C82.853 37.8606 82.8714 37.987 82.8618 38.113V48.4004C82.7962 51.7166 81.6837 54.9332 79.675 57.6147C77.6663 60.2962 74.8584 62.3131 71.6313 63.3924C65.0268 65.7849 58.0256 66.9756 50.9776 66.9051Z" fill="#a24900"/>
<path d="M50.9781 51.9133C48.9056 51.9403 46.8536 51.5113 44.9756 50.6587L4.82999 31.8404C3.64621 31.3678 2.63372 30.564 1.92115 29.5308C1.20859 28.4977 0.828125 27.282 0.828125 26.0382C0.828125 24.7944 1.20859 23.5787 1.92115 22.5455C2.63372 21.5124 3.64621 20.7085 4.82999 20.2359L44.9756 1.41758C46.8391 0.549476 48.8793 0.098877 50.9459 0.098877C53.0124 0.098877 55.0525 0.549476 56.916 1.41758L62.7249 4.11488C62.9447 4.23448 63.1119 4.42808 63.1951 4.65908C63.2783 4.89018 63.2718 5.14278 63.1767 5.36948C63.1291 5.48678 63.056 5.59278 62.9625 5.68018C62.869 5.76758 62.7571 5.83438 62.6346 5.87598C62.5122 5.91768 62.3819 5.93318 62.2527 5.92158C62.1235 5.90988 61.9984 5.87128 61.8859 5.80848L56.077 3.11118C54.474 2.36978 52.7211 1.98498 50.9459 1.98498C49.1706 1.98498 47.4176 2.36978 45.8147 3.11118L5.79814 21.7413C4.96453 22.0803 4.25264 22.651 3.75193 23.3821C3.25123 24.1131 2.98405 24.9718 2.98405 25.85C2.98405 26.7282 3.25123 27.5869 3.75193 28.3179C4.25264 29.049 4.96453 29.6198 5.79814 29.9587L45.9438 48.777C47.5505 49.5056 49.3019 49.8832 51.0749 49.8832C52.8479 49.8832 54.5994 49.5056 56.2061 48.777L96.4163 29.9587C97.2401 29.5957 97.9349 29.004 98.4133 28.258C98.8917 27.512 99.1323 26.645 99.1047 25.7663C99.077 24.8877 98.7825 24.0367 98.2582 23.3204C97.7338 22.6042 97.0031 22.0548 96.1581 21.7413L68.9856 9.19578C68.7547 9.08748 68.5774 8.89458 68.4927 8.65938C68.408 8.42418 68.4228 8.16578 68.5338 7.94118C68.6452 7.71678 68.8438 7.54448 69.0858 7.46218C69.3278 7.37988 69.5935 7.39438 69.8246 7.50218L96.9971 20.0478C98.1809 20.5204 99.1935 21.3242 99.906 22.3574C100.619 23.3905 100.999 24.6062 100.999 25.85C100.999 27.0938 100.619 28.3095 99.906 29.3426C99.1935 30.3758 98.1809 31.1796 96.9971 31.6522L56.787 50.4705C54.9866 51.3689 53.0012 51.862 50.9781 51.9133Z" fill="#a24900"/>
<path d="M68.9177 69.289C68.6609 69.289 68.4147 69.19 68.2331 69.013C68.0516 68.837 67.9495 68.597 67.9495 68.348V44.4487L50.3294 26.7594C50.2332 26.677 50.1562 26.5757 50.1035 26.4621C50.0507 26.3486 50.0234 26.2255 50.0234 26.1009C50.0234 25.9763 50.0507 25.853 50.1035 25.7395C50.1562 25.6259 50.2332 25.5246 50.3294 25.4422C50.5212 25.2657 50.7752 25.1675 51.0393 25.1675C51.3035 25.1675 51.5575 25.2657 51.7493 25.4422L69.6277 43.3824C69.6908 43.6083 69.6908 43.8464 69.6277 44.0723V68.348C69.6355 68.559 69.5697 68.768 69.4409 68.938C69.3121 69.109 69.1277 69.232 68.9177 69.289Z" fill="#a24900"/>
<path d="M69.7634 81.772H68.0853C67.1455 81.783 66.2195 81.55 65.4028 81.098C64.5861 80.646 63.908 79.991 63.4381 79.2C63.0088 78.532 62.7812 77.761 62.7812 76.973C62.7812 76.186 63.0088 75.414 63.4381 74.746L67.9561 67.8463C68.0444 67.7169 68.1643 67.6108 68.3051 67.5373C68.4458 67.4639 68.6031 67.4255 68.7629 67.4255C68.9226 67.4255 69.0799 67.4639 69.2207 67.5373C69.3615 67.6108 69.4813 67.7169 69.5697 67.8463L74.0877 74.746C74.4963 75.421 74.7118 76.19 74.7118 76.973C74.7118 77.756 74.4963 78.525 74.0877 79.2C73.6414 79.942 73.0129 80.566 72.2583 81.015C71.5037 81.463 70.6467 81.724 69.7634 81.772ZM68.9242 70.104L65.2453 75.75C64.9923 76.134 64.8578 76.58 64.8578 77.036C64.8578 77.492 64.9923 77.938 65.2453 78.322C65.5581 78.811 65.9962 79.212 66.5166 79.487C67.0371 79.762 67.622 79.901 68.2143 79.89H69.8924C70.4846 79.901 71.0696 79.762 71.59 79.487C72.1104 79.212 72.5486 78.811 72.8614 78.322C73.1002 77.933 73.2262 77.489 73.2262 77.036C73.2262 76.583 73.1002 76.139 72.8614 75.75L68.9242 70.104Z" fill="#a24900"/>
</g>
</svg>
