<svg width="134" height="109" viewBox="0 0 134 109" fill="none" xmlns="http://www.w3.org/2000/svg">
<g style="mix-blend-mode:overlay">
<path d="M67.1347 88.4271C57.9587 88.4771 48.85 86.9034 40.254 83.7828C35.978 82.3593 32.2539 79.6958 29.5837 76.1516C26.9135 72.6073 25.4254 68.3526 25.3203 63.961V50.3595C25.3203 50.0295 25.4552 49.7133 25.6953 49.48C25.9353 49.2467 26.2609 49.1155 26.6004 49.1155C26.7717 49.1031 26.9438 49.127 27.1049 49.1851C27.2659 49.2432 27.4123 49.3343 27.5338 49.4524C27.6553 49.5705 27.7492 49.7127 27.809 49.8692C27.8688 50.0258 27.8931 50.1929 27.8804 50.3595V63.961C28.0111 67.893 29.395 71.6886 31.8408 74.8233C34.2866 77.958 37.6736 80.277 41.5341 81.4603C58.2969 87.5156 76.7405 87.5156 93.5033 81.4603C97.2907 80.2173 100.592 77.8708 102.959 74.7398C105.326 71.6087 106.642 67.8452 106.73 63.961V50.3595C106.73 50.0295 106.865 49.7133 107.105 49.48C107.345 49.2467 107.671 49.1155 108.01 49.1155C108.182 49.1031 108.354 49.127 108.515 49.1851C108.676 49.2432 108.822 49.3343 108.944 49.4524C109.065 49.5705 109.159 49.7127 109.219 49.8692C109.279 50.0258 109.303 50.1929 109.29 50.3595V63.961C109.204 68.3456 107.733 72.5984 105.077 76.1437C102.421 79.689 98.7087 82.3558 94.442 83.7828C85.7098 86.946 76.4532 88.5203 67.1347 88.4271Z" fill="#2E2C74"/>
<path d="M67.1341 68.6055C64.3938 68.6411 61.6808 68.074 59.1979 66.9467L6.11921 42.066C4.55406 41.4412 3.2154 40.3784 2.27328 39.0124C1.33116 37.6464 0.828125 36.039 0.828125 34.3946C0.828125 32.7501 1.33116 31.1428 2.27328 29.7768C3.2154 28.4108 4.55406 27.348 6.11921 26.7231L59.1979 1.84248C61.6617 0.694691 64.3592 0.098877 67.0914 0.098877C69.8237 0.098877 72.5211 0.694691 74.9849 1.84248L82.6651 5.40865C82.9557 5.56676 83.1768 5.82272 83.2868 6.12821C83.3968 6.43369 83.3882 6.76774 83.2625 7.06746C83.1995 7.22257 83.1029 7.36266 82.9793 7.47824C82.8556 7.59382 82.7077 7.68207 82.5458 7.73716C82.3839 7.79224 82.2116 7.8128 82.0408 7.7974C81.8699 7.78199 81.7045 7.73091 81.5558 7.64782L73.8756 4.08165C71.7562 3.10137 69.4386 2.59266 67.0914 2.59266C64.7443 2.59266 62.4266 3.10137 60.3072 4.08165L7.39925 28.7135C6.29709 29.1616 5.35585 29.9163 4.69385 30.8828C4.03184 31.8494 3.67859 32.9847 3.67859 34.1458C3.67859 35.3069 4.03184 36.4422 4.69385 37.4087C5.35585 38.3753 6.29709 39.13 7.39925 39.5781L60.4779 64.4587C62.6022 65.4221 64.9179 65.9214 67.2621 65.9214C69.6063 65.9214 71.922 65.4221 74.0462 64.4587L127.21 39.5781C128.299 39.0982 129.218 38.3159 129.851 37.3295C130.483 36.3432 130.801 35.1969 130.765 34.0352C130.728 32.8735 130.339 31.7483 129.646 30.8013C128.952 29.8543 127.986 29.1279 126.869 28.7135L90.9427 12.1264C90.6374 11.9832 90.4031 11.7282 90.2911 11.4172C90.1791 11.1063 90.1986 10.7646 90.3453 10.4676C90.4927 10.1709 90.7552 9.94318 91.0752 9.83434C91.3951 9.7255 91.7464 9.74464 92.052 9.88724L127.978 26.4743C129.543 27.0992 130.882 28.162 131.824 29.528C132.766 30.894 133.269 32.5013 133.269 34.1458C133.269 35.7902 132.766 37.3976 131.824 38.7636C130.882 40.1296 129.543 41.1924 127.978 41.8172L74.8143 66.6979C72.4339 67.8856 69.809 68.5376 67.1341 68.6055Z" fill="#2E2C74"/>
<path d="M90.8561 91.5785C90.5166 91.5785 90.191 91.4476 89.951 91.2143C89.7109 90.981 89.576 90.6644 89.576 90.3345V58.7361L66.2795 35.3482C66.1524 35.2392 66.0505 35.1053 65.9808 34.9551C65.9111 34.805 65.875 34.6423 65.875 34.4775C65.875 34.3128 65.9111 34.1498 65.9808 33.9997C66.0505 33.8495 66.1524 33.7156 66.2795 33.6066C66.5331 33.3733 66.869 33.2434 67.2182 33.2434C67.5674 33.2434 67.9033 33.3733 68.1569 33.6066L91.7948 57.3263C91.8782 57.625 91.8782 57.9398 91.7948 58.2385V90.3345C91.8052 90.6143 91.7182 90.8893 91.5478 91.1151C91.3775 91.3408 91.1338 91.504 90.8561 91.5785Z" fill="#2E2C74"/>
<path d="M91.9658 108.083H89.7471C88.5045 108.097 87.2804 107.79 86.2005 107.192C85.1207 106.595 84.2241 105.729 83.6029 104.683C83.0353 103.8 82.7344 102.779 82.7344 101.738C82.7344 100.697 83.0353 99.6772 83.6029 98.7943L89.5763 89.6713C89.6931 89.5002 89.8516 89.3599 90.0377 89.2628C90.2239 89.1657 90.4318 89.115 90.643 89.115C90.8543 89.115 91.0623 89.1657 91.2484 89.2628C91.4345 89.3599 91.593 89.5002 91.7097 89.6713L97.6833 98.7943C98.2235 99.6866 98.5084 100.703 98.5084 101.738C98.5084 102.774 98.2235 103.79 97.6833 104.683C97.0932 105.664 96.2622 106.488 95.2646 107.082C94.2669 107.675 93.1336 108.019 91.9658 108.083ZM90.8564 92.6569L85.9923 100.121C85.6577 100.628 85.48 101.219 85.48 101.821C85.48 102.424 85.6577 103.014 85.9923 103.521C86.4059 104.168 86.9851 104.699 87.6732 105.062C88.3613 105.425 89.1347 105.609 89.9177 105.595H92.1364C92.9194 105.609 93.6929 105.425 94.381 105.062C95.0691 104.699 95.6483 104.168 96.0619 103.521C96.3775 103.007 96.5442 102.42 96.5442 101.821C96.5442 101.223 96.3775 100.635 96.0619 100.121L90.8564 92.6569Z" fill="#2E2C74"/>
</g>
</svg>
