<svg width="78" height="86" viewBox="0 0 78 86" fill="none" xmlns="http://www.w3.org/2000/svg">
<g clip-path="url(#clip0_920_1525)">
<path d="M3.95837 45.0192C3.31932 45.0193 2.68941 44.8702 2.12049 44.5842C1.55158 44.2982 1.05996 43.8833 0.686175 43.374C0.383995 42.9591 0.169572 42.4889 0.0556085 41.9912C-0.0583546 41.4935 -0.0695522 40.9783 0.0226898 40.4763C0.114932 39.9742 0.308756 39.4955 0.592644 39.0684C0.876531 38.6413 1.24476 38.2744 1.67548 37.9896L10.6549 32.0071V32.755C10.6549 35.3723 11.1877 37.915 11.416 40.2332L6.08909 43.748C5.53676 44.3863 4.78944 44.8321 3.95837 45.0192ZM9.81792 33.6523L2.20816 38.7375C1.87676 38.9488 1.5916 39.223 1.36946 39.544C1.14731 39.865 0.992616 40.2265 0.914458 40.607C0.824359 41.3928 1.01247 42.185 1.44714 42.8504C1.66839 43.1738 1.95337 43.4504 2.2852 43.6638C2.61704 43.8772 2.98903 44.0231 3.37919 44.0928C3.76934 44.1626 4.16975 44.1547 4.55677 44.0698C4.9438 43.9849 5.3096 43.8245 5.63253 43.5983L10.5028 40.3827L9.81792 33.6523Z" fill="#a24900"/>
<path d="M40.9366 65.5843H40.0234C40.0234 64.9695 40.272 64.3798 40.7144 63.945C41.1568 63.5103 41.7568 63.2661 42.3825 63.2661H57.602V54.6661C57.602 54.0513 57.8506 53.4616 58.293 53.0269C58.7354 52.5921 59.3354 52.3479 59.961 52.3479H77.7679V53.2453H60.1893C59.9965 53.2344 59.8036 53.2637 59.6232 53.3313C59.4428 53.3989 59.2789 53.5032 59.1424 53.6373C59.0059 53.7715 58.8997 53.9324 58.831 54.1097C58.7622 54.2871 58.7324 54.4767 58.7435 54.6661V64.1635H42.3825C42.1926 64.1635 42.0046 64.2002 41.8292 64.2716C41.6537 64.343 41.4944 64.4478 41.3601 64.5797C41.2258 64.7117 41.1194 64.8683 41.0467 65.0407C40.974 65.2131 40.9366 65.3977 40.9366 65.5843Z" fill="#a24900"/>
<path d="M23.2887 86.0001H6.85156V85.1027H22.0711V76.5025C22.0711 75.8877 22.3196 75.2982 22.762 74.8635C23.2044 74.4287 23.8045 74.1843 24.4301 74.1843H39.6497V70.52H40.5628V75.0816H24.6584C24.4657 75.0708 24.2727 75.1001 24.0923 75.1677C23.9119 75.2353 23.7481 75.3396 23.6115 75.4737C23.475 75.6079 23.3689 75.7691 23.3001 75.9464C23.2313 76.1237 23.2015 76.3131 23.2126 76.5025L23.2887 86.0001Z" fill="#a24900 "/>
<path fill-rule="evenodd" clip-rule="evenodd" d="M64.6834 12.1897L59.4326 15.2556L51.8229 13.3114C51.3351 13.1879 50.8242 13.1824 50.3337 13.2952C49.8433 13.408 49.388 13.6357 49.0066 13.9591C48.6253 14.2824 48.3292 14.6915 48.1438 15.1517C47.9584 15.6119 47.8891 16.1096 47.9419 16.6018L49.616 33.8766L42.9955 46.1408C42.7226 46.8409 42.7202 47.6151 42.9887 48.3169C43.2572 49.0186 43.7781 49.5994 44.4528 49.9493C45.1275 50.2993 45.9093 50.3943 46.6504 50.2161C47.3914 50.038 48.0404 49.5991 48.4745 48.9826L55.4756 36.0451C55.7783 35.4939 55.9353 34.8768 55.9321 34.2504V33.4279L59.2043 34.5496L60.5741 43.9723C60.7054 44.7608 61.1448 45.4676 61.7986 45.9425C62.4524 46.4174 63.269 46.6228 64.0746 46.5149C64.8908 46.4034 65.6291 45.979 66.1281 45.3345C66.6271 44.69 66.8463 43.8775 66.738 43.0747L65.0638 31.7827C64.9797 31.2362 64.7433 30.7233 64.3806 30.3009C64.0179 29.8785 63.5432 29.563 63.0092 29.3896L55.3995 26.7722L54.7907 20.341L59.0521 21.4627C59.4361 21.6274 59.8507 21.7123 60.2697 21.7123C60.6887 21.7123 61.1032 21.6274 61.4872 21.4627L67.8794 17.7235C68.568 17.2915 69.0621 16.6168 69.2602 15.838C69.4584 15.0591 69.3455 14.2353 68.9448 13.5357C68.5184 12.8443 67.8314 12.3465 67.0333 12.1504C66.2352 11.9544 65.3907 12.0758 64.6834 12.4886V12.1897Z" fill="#a24900"/>
<path fill-rule="evenodd" clip-rule="evenodd" d="M50.8296 0.299116C52.1231 -0.170845 53.5516 -0.129343 54.8147 0.414595C56.0779 0.958532 57.0771 1.96262 57.6023 3.21575C57.9649 4.45206 57.8443 5.77693 57.2644 6.93046C56.6844 8.08399 55.6869 8.98299 54.4674 9.45113C53.2479 9.91928 51.8943 9.92274 50.6723 9.46095C49.4503 8.99915 48.4479 8.10537 47.8618 6.95488C47.3836 5.68373 47.4256 4.27994 47.9791 3.03865C48.5326 1.79736 49.5544 0.8152 50.8296 0.299116Z" fill="#a24900"/>
<path fill-rule="evenodd" clip-rule="evenodd" d="M33.9364 27.7444C33.6676 27.3809 33.4774 26.967 33.3776 26.5285C33.2778 26.09 33.2705 25.6362 33.356 25.1948C33.4416 24.7534 33.6182 24.3337 33.8751 23.962C34.132 23.5902 34.4636 23.2741 34.8495 23.0331L43.068 17.4993C43.068 20.0419 43.6007 22.6593 43.829 24.9775L38.7305 28.3426C38.0133 28.8862 37.1062 29.1287 36.2077 29.0165C35.3092 28.9044 34.4925 28.4469 33.9364 27.7444Z" fill="#a24900"/>
<path fill-rule="evenodd" clip-rule="evenodd" d="M35.0813 31.6329L28.0042 35.8207C27.57 35.9976 27.1045 36.0888 26.6344 36.0888C26.1644 36.0888 25.6989 35.9976 25.2647 35.8207L20.4705 34.5495L21.1554 42.0278L29.8305 44.8695C30.4374 45.0849 30.9753 45.4543 31.3897 45.9403C31.8041 46.4264 32.08 47.0116 32.1895 47.6365L34.0159 60.2747C34.1015 60.7306 34.0926 61.1986 33.9895 61.6509C33.8864 62.1032 33.6914 62.5304 33.4161 62.9068C33.1408 63.2832 32.791 63.6011 32.3876 63.8413C31.9842 64.0815 31.5355 64.2391 31.0686 64.3046C30.6017 64.3702 30.1261 64.3423 29.6704 64.2227C29.2147 64.1031 28.7883 63.8944 28.4167 63.6088C28.0452 63.3232 27.7363 62.9667 27.5085 62.5608C27.2807 62.1549 27.1387 61.7081 27.091 61.2469L25.5691 50.7026L21.8402 49.506V50.3285C21.8789 51.0539 21.7213 51.7763 21.3837 52.4224L13.7739 66.9303C13.3249 67.7185 12.5783 68.3015 11.6956 68.5534C10.8128 68.8052 9.86461 68.7059 9.05585 68.2765C8.65385 68.0728 8.29807 67.7911 8.00988 67.4486C7.72169 67.106 7.50709 66.7096 7.37908 66.2833C7.25107 65.857 7.21229 65.4095 7.26505 64.968C7.31782 64.5266 7.46103 64.1002 7.68609 63.7147L15.2958 49.9547L13.3934 30.586C13.3358 30.0296 13.4171 29.4678 13.6303 28.9492C13.8435 28.4307 14.1821 27.9708 14.6169 27.6098C15.0516 27.2489 15.5694 26.9976 16.1253 26.8777C16.6812 26.7578 17.2584 26.773 17.8071 26.9218L26.0256 29.0903L31.3524 26.0242C31.4248 27.0631 31.7653 28.0669 32.3417 28.9408C33.158 30.1126 34.3718 30.9609 35.7661 31.3339L35.0813 31.6329Z" fill="#a24900"/>
<path d="M17.8829 24.1546C16.4225 24.1378 15.0131 23.6244 13.8947 22.7013C12.7763 21.7782 12.018 20.5027 11.7488 19.092C11.4797 17.6813 11.7163 16.2225 12.4185 14.964C13.1206 13.7055 14.2449 12.7251 15.6 12.1896C17.1559 11.622 18.8756 11.6712 20.3951 12.3272C21.9147 12.9831 23.1151 14.1943 23.7424 15.7044C24.3537 17.2432 24.3537 18.9515 23.7424 20.4903C23.0468 21.9868 21.7941 23.1643 20.2419 23.7808C19.4805 24.0267 18.6844 24.1528 17.8829 24.1546ZM15.6761 13.0869C14.3633 13.604 13.3092 14.6064 12.7401 15.8787C12.171 17.1511 12.1322 18.592 12.6322 19.8922C12.887 20.5354 13.2683 21.1229 13.7542 21.6214C14.2401 22.1198 14.8212 22.5194 15.4642 22.7972C16.1073 23.0749 16.7996 23.2256 17.5019 23.2404C18.2041 23.2552 18.9025 23.1339 19.5571 22.8834C20.2116 22.633 20.8096 22.2582 21.3168 21.7807C21.824 21.3032 22.2306 20.7322 22.5132 20.1003C22.7959 19.4684 22.9491 18.788 22.9641 18.0979C22.9792 17.4078 22.8558 16.7214 22.601 16.0782C22.0748 14.7881 21.0548 13.7523 19.76 13.193C18.4653 12.6338 16.9991 12.5956 15.6761 13.0869Z" fill="#a24900"/>
</g>
<defs>
<clipPath id="clip0_920_1525">
<rect width="78" height="86" fill="white"/>
</clipPath>
</defs>
</svg>
