<svg xmlns="http://www.w3.org/2000/svg" viewBox="0 0 4.99 3.27"><defs><style>.cls-1{font-size:0.11px;}.cls-2{fill:#4173cd;}.cls-3{fill:#ffe15a;}</style></defs><g id="Layer_2" data-name="Layer 2"><g id="Layer_1-2" data-name="Layer 1"><text class="cls-1" transform="translate(1.17 0.16)">United Kingdom</text><path class="cls-2" d="M4.62,0H.37A.38.38,0,0,0,0,.37V2.9a.38.38,0,0,0,.37.37H4.62A.38.38,0,0,0,5,2.9V.37A.38.38,0,0,0,4.62,0Z"/><polygon class="cls-3" points="4.99 1.38 2.06 1.38 2.06 0 1.55 0 1.55 1.38 0 1.38 0 1.89 1.55 1.89 1.55 3.27 2.06 3.27 2.06 1.89 4.99 1.89 4.99 1.38"/></g></g></svg>