<svg xmlns="http://www.w3.org/2000/svg" viewBox="0 0 5.08 3.28"><defs><style>.cls-1{fill:#e5646e;}.cls-2{fill:#f2f2f6;}.cls-3{fill:#db4655;}.cls-4{fill:#5055a0;}.cls-5{fill:#3f3f8f;}.cls-6{fill:#fff;}.cls-7{fill:#e1e1e6;}</style></defs><g id="Layer_2" data-name="Layer 2"><g id="Layer_1-2" data-name="Layer 1"><path class="cls-1" d="M4.91,0H2.62L.09,1.75V3.21H4.91l.17-.1v-.3L5,2.71V2.42l.11-.08V1.87L5,1.78V1.49l.1-.09V.94L5,.85V.59l.1-.12V.16A.17.17,0,0,0,4.91,0Z"/><path class="cls-2" d="M2.54.47H5.08V.94H2.54Z"/><path class="cls-2" d="M2.54,1.4l.08.47H5.08V1.4Z"/><path class="cls-3" d="M.16,2.62V1.79L0,1.87v.47l.07.06v.31L0,2.81v.3a.17.17,0,0,0,.16.17H4.91a.18.18,0,0,0,.17-.17H.66a.49.49,0,0,1-.5-.49Z"/><path class="cls-4" d="M2.62,0H.16L.06.16l.1,1.71H2.62Z"/><path class="cls-5" d="M.16,0A.16.16,0,0,0,0,.16V1.87H.16Z"/><path class="cls-6" d="M.33.37A.08.08,0,0,1,.25.28.08.08,0,0,1,.33.2h0A.09.09,0,0,1,.41.28.09.09,0,0,1,.33.37Z"/><path class="cls-6" d="M.33,1A.08.08,0,0,1,.25.94.07.07,0,0,1,.33.86h0A.08.08,0,0,1,.41.94.09.09,0,0,1,.33,1Z"/><path class="cls-6" d="M.33,1.68a.08.08,0,0,1-.08-.09.08.08,0,0,1,.08-.08h0a.09.09,0,0,1,.08.08A.09.09,0,0,1,.33,1.68Z"/><path class="cls-2" d="M.33.69A.07.07,0,0,1,.25.61.08.08,0,0,1,.33.53h0A.09.09,0,0,1,.41.61.08.08,0,0,1,.33.69Z"/><path class="cls-2" d="M.33,1.35a.08.08,0,0,1-.08-.08.08.08,0,0,1,.08-.09h0a.09.09,0,0,1,.08.09A.09.09,0,0,1,.33,1.35Z"/><path class="cls-6" d="M2.29.37A.09.09,0,0,1,2.21.28.09.09,0,0,1,2.29.2h0a.09.09,0,0,1,.09.08.09.09,0,0,1-.09.09Z"/><path class="cls-6" d="M2.29,1A.09.09,0,0,1,2.21.94.08.08,0,0,1,2.29.86h0a.08.08,0,0,1,.09.08A.09.09,0,0,1,2.29,1Z"/><path class="cls-6" d="M2.29,1.68a.09.09,0,0,1-.08-.09.09.09,0,0,1,.08-.08h0a.09.09,0,0,1,.09.08.09.09,0,0,1-.09.09Z"/><path class="cls-2" d="M2.29.69A.08.08,0,0,1,2.21.61.09.09,0,0,1,2.29.53h0a.09.09,0,0,1,.09.08.08.08,0,0,1-.09.08Z"/><path class="cls-2" d="M2.29,1.35a.09.09,0,0,1-.08-.08.09.09,0,0,1,.08-.09h0a.09.09,0,0,1,.09.09.09.09,0,0,1-.09.08Z"/><path class="cls-2" d="M.82.37A.08.08,0,0,1,.74.28.08.08,0,0,1,.82.2h0A.08.08,0,0,1,.9.28.08.08,0,0,1,.82.37Z"/><path class="cls-2" d="M.82,1A.08.08,0,0,1,.74.94.07.07,0,0,1,.82.86h0A.07.07,0,0,1,.9.94.08.08,0,0,1,.82,1Z"/><path class="cls-2" d="M.82,1.68a.08.08,0,0,1-.08-.09.08.08,0,0,1,.08-.08h0a.08.08,0,0,1,.08.08A.08.08,0,0,1,.82,1.68Z"/><path class="cls-6" d="M.82.69A.07.07,0,0,1,.74.61.08.08,0,0,1,.82.53h0A.08.08,0,0,1,.9.61.07.07,0,0,1,.82.69Z"/><path class="cls-6" d="M.82,1.35a.08.08,0,0,1-.08-.08.08.08,0,0,1,.08-.09h0a.08.08,0,0,1,.08.09A.08.08,0,0,1,.82,1.35Z"/><path class="cls-6" d="M.57.53A.09.09,0,0,1,.49.45.08.08,0,0,1,.57.37h0A.08.08,0,0,1,.66.45.09.09,0,0,1,.57.53Z"/><path class="cls-6" d="M.57,1.18A.08.08,0,0,1,.49,1.1.09.09,0,0,1,.57,1h0a.09.09,0,0,1,.09.08A.08.08,0,0,1,.57,1.18Z"/><path class="cls-2" d="M.57.86A.09.09,0,0,1,.49.77.09.09,0,0,1,.57.69h0A.09.09,0,0,1,.66.77.09.09,0,0,1,.57.86Z"/><path class="cls-2" d="M.57,1.51a.08.08,0,0,1,0-.16h0a.08.08,0,1,1,0,.16Z"/><path class="cls-6" d="M1.31.37A.09.09,0,0,1,1.23.28.09.09,0,0,1,1.31.2h0a.08.08,0,0,1,.08.08.08.08,0,0,1-.08.09Z"/><path class="cls-6" d="M1.31,1A.09.09,0,0,1,1.23.94.08.08,0,0,1,1.31.86h0a.07.07,0,0,1,.08.08A.08.08,0,0,1,1.31,1Z"/><path class="cls-6" d="M1.31,1.68a.09.09,0,0,1-.08-.09.09.09,0,0,1,.08-.08h0a.08.08,0,0,1,.08.08.08.08,0,0,1-.08.09Z"/><path class="cls-2" d="M1.31.69A.08.08,0,0,1,1.23.61.09.09,0,0,1,1.31.53h0a.08.08,0,0,1,.08.08.07.07,0,0,1-.08.08Z"/><path class="cls-2" d="M1.31,1.35a.09.09,0,0,1-.08-.08.09.09,0,0,1,.08-.09h0a.08.08,0,0,1,.08.09.08.08,0,0,1-.08.08Z"/><path class="cls-2" d="M1.07.53A.09.09,0,0,1,1,.45.08.08,0,0,1,1.06.37h0a.08.08,0,0,1,.08.08A.09.09,0,0,1,1.07.53Z"/><path class="cls-2" d="M1.07,1.18A.08.08,0,0,1,1,1.1.09.09,0,0,1,1.06,1h0a.09.09,0,0,1,.08.08A.08.08,0,0,1,1.07,1.18Z"/><path class="cls-6" d="M1.07.86A.09.09,0,0,1,1,.77.09.09,0,0,1,1.06.69h0a.09.09,0,0,1,.08.08A.09.09,0,0,1,1.07.86Z"/><path class="cls-6" d="M1.07,1.51A.08.08,0,0,1,1,1.43a.08.08,0,0,1,.08-.08h0a.08.08,0,0,1,0,.16Z"/><path class="cls-2" d="M1.8.37A.09.09,0,0,1,1.72.28.09.09,0,0,1,1.8.2h0a.08.08,0,0,1,.08.08A.08.08,0,0,1,1.8.37Z"/><path class="cls-2" d="M1.8,1A.09.09,0,0,1,1.72.94.08.08,0,0,1,1.8.86h0a.07.07,0,0,1,.08.08A.08.08,0,0,1,1.8,1Z"/><path class="cls-2" d="M1.8,1.68a.09.09,0,0,1-.08-.09.09.09,0,0,1,.08-.08h0a.08.08,0,0,1,.08.08.08.08,0,0,1-.08.09Z"/><path class="cls-6" d="M1.8.69A.08.08,0,0,1,1.72.61.09.09,0,0,1,1.8.53h0a.08.08,0,0,1,.08.08A.07.07,0,0,1,1.8.69Z"/><path class="cls-6" d="M1.8,1.35a.09.09,0,0,1-.08-.08.09.09,0,0,1,.08-.09h0a.08.08,0,0,1,.08.09.08.08,0,0,1-.08.08Z"/><path class="cls-6" d="M1.56.53A.09.09,0,0,1,1.47.45.08.08,0,0,1,1.56.37h0a.08.08,0,0,1,.08.08.09.09,0,0,1-.08.08Z"/><path class="cls-6" d="M1.56,1.18a.08.08,0,0,1-.09-.08A.09.09,0,0,1,1.56,1h0a.09.09,0,0,1,.08.08.08.08,0,0,1-.08.08Z"/><path class="cls-2" d="M1.56.86A.09.09,0,0,1,1.47.77.09.09,0,0,1,1.56.69h0a.09.09,0,0,1,.08.08.09.09,0,0,1-.08.09Z"/><path class="cls-2" d="M1.56,1.51a.08.08,0,1,1,0-.16h0a.08.08,0,0,1,0,.16Z"/><path class="cls-2" d="M2.05.53A.08.08,0,0,1,2,.45.07.07,0,0,1,2.05.37h0a.08.08,0,0,1,.08.08.09.09,0,0,1-.08.08Z"/><path class="cls-2" d="M2.05,1.18A.07.07,0,0,1,2,1.1.08.08,0,0,1,2.05,1h0a.09.09,0,0,1,.08.08.08.08,0,0,1-.08.08Z"/><path class="cls-6" d="M2.05.86A.08.08,0,0,1,2,.77.08.08,0,0,1,2.05.69h0a.09.09,0,0,1,.08.08.09.09,0,0,1-.08.09Z"/><path class="cls-6" d="M2.05,1.51a.08.08,0,0,1,0-.16h0a.08.08,0,0,1,0,.16Z"/><path class="cls-2" d="M0,2.67l.17.14H5.08V2.34H.16Z"/><path class="cls-7" d="M0,2.34v.47H.2a.58.58,0,0,1,0-.19V2.34Z"/></g></g></svg>