<svg xmlns="http://www.w3.org/2000/svg" viewBox="0 0 5 3.27"><defs><style>.cls-1{fill:#ff4b55;}.cls-2{fill:#f5f5f5;}</style></defs><g id="Layer_2" data-name="Layer 2"><g id="Layer_1-2" data-name="Layer 1"><path class="cls-1" d="M4.62,0H.37A.38.38,0,0,0,0,.37V1.64H5V.37A.38.38,0,0,0,4.62,0Z"/><path class="cls-2" d="M0,1.64H5V3.19a.08.08,0,0,1-.09.08H.09A.08.08,0,0,1,0,3.19Z"/><path class="cls-2" d="M.71.82A.57.57,0,0,1,1.19.26s0,0,0,0A.74.74,0,0,0,1,.22.62.62,0,0,0,.45.81a.61.61,0,0,0,.61.61h.13s0,0,0,0A.57.57,0,0,1,.71.82Z"/><path class="cls-2" d="M1.19,1l0,.08H1.09s0,0,0,0l.06.05,0,.07a0,0,0,0,0,0,0l.06-.05.07.05a0,0,0,0,0,0,0l0-.07.07-.05s0,0,0,0H1.24l0-.08S1.2,1,1.19,1Z"/><path class="cls-2" d="M1.59,1l0,.08H1.48s0,0,0,0l.06.05,0,.07a0,0,0,0,0,0,0l.06-.05.07.05s0,0,0,0l0-.07.06-.05s0,0,0,0H1.64l0-.08S1.59,1,1.59,1Z"/><path class="cls-2" d="M1.39.36l0,.07H1.29s0,0,0,0l.07,0,0,.08s0,0,0,0l.06,0,.07,0s0,0,0,0l0-.08.07,0s0,0,0,0H1.44l0-.07S1.4.35,1.39.36Z"/><path class="cls-2" d="M1.08.59l0,.08H1s0,0,0,0L1,.74,1,.81l0,0,.07,0,.06,0,0,0,0-.07L1.21.69s0,0,0,0H1.12l0-.08S1.08.58,1.08.59Z"/><path class="cls-2" d="M1.71.59l0,.08H1.6s0,0,0,0l.06.05,0,.07s0,0,0,0l.07,0,.06,0,0,0,0-.07L1.84.69s0,0,0,0H1.75l0-.08S1.71.58,1.71.59Z"/></g></g></svg>