<svg xmlns="http://www.w3.org/2000/svg" viewBox="0 0 5 3.28"><defs><style>.cls-1{fill:#f5f5f5;}.cls-2{fill:#ff4b55;}</style></defs><g id="Layer_2" data-name="Layer 2"><g id="Layer_1-2" data-name="Layer 1"><rect class="cls-1" x="1.12" width="2.76" height="3.28"/><path class="cls-2" d="M.37,0A.38.38,0,0,0,0,.37V2.9a.38.38,0,0,0,.37.38h.75V0Z"/><path class="cls-2" d="M4.63,0H3.88V3.28h.75A.38.38,0,0,0,5,2.9V.37A.38.38,0,0,0,4.63,0Z"/><path class="cls-2" d="M3,2l.51-.3-.11-.05a.1.1,0,0,1,0-.09l0-.29-.22.06a.08.08,0,0,1-.11-.06l0-.09-.2.23a0,0,0,0,1-.07,0L2.87.89l-.13,0a.1.1,0,0,1-.1,0L2.5.63h0L2.36.89a.1.1,0,0,1-.1,0l-.13,0,.09.51a0,0,0,0,1-.08,0l-.2-.23,0,.09a.08.08,0,0,1-.11.06l-.22-.06,0,.29a.1.1,0,0,1,0,.09l-.11.05L2,2a.12.12,0,0,1,0,.15l0,.12.44,0a0,0,0,0,1,0,0v.47h.08V2.29a0,0,0,0,1,0,0l.44,0,0-.12A.12.12,0,0,1,3,2Z"/></g></g></svg>