<svg xmlns="http://www.w3.org/2000/svg" xmlns:xlink="http://www.w3.org/1999/xlink" viewBox="0 0 5 3.27"><defs><style>.cls-1{fill:none;}.cls-2{clip-path:url(#clip-path);}.cls-3{clip-path:url(#clip-path-2);}.cls-4{fill:#fff;}.cls-5{fill:#151515;}.cls-5,.cls-6,.cls-7{fill-rule:evenodd;}.cls-6{fill:#249f58;}.cls-7{fill:#f93939;}</style><clipPath id="clip-path" transform="translate(0)"><rect class="cls-1" width="5" height="3.27"/></clipPath><clipPath id="clip-path-2" transform="translate(0)"><rect class="cls-1" width="5" height="3.27" rx="0.41"/></clipPath></defs><g id="Layer_2" data-name="Layer 2"><g id="Layer_1-2" data-name="Layer 1"><g class="cls-2"><g class="cls-3"><path class="cls-4" d="M4.57,0H.43A.44.44,0,0,0,0,.44v2.4a.43.43,0,0,0,.43.43H4.57A.43.43,0,0,0,5,2.84V.44A.44.44,0,0,0,4.57,0Z" transform="translate(0)"/><path class="cls-5" d="M0,2.25H5v1H0Z" transform="translate(0)"/><path class="cls-6" d="M0,0H5V1H0Z" transform="translate(0)"/><path class="cls-7" d="M0,0V3.27H1.23V0Z" transform="translate(0)"/></g></g></g></g></svg>