<svg xmlns="http://www.w3.org/2000/svg" viewBox="0 0 5.02 3.29"><defs><style>.cls-1{fill:#ff4b55;}.cls-2{fill:#f5f5f5;}.cls-3{fill:#cdcdcd;}.cls-4{fill:#b4a08c;}</style></defs><g id="Layer_2" data-name="Layer 2"><g id="Layer_1-2" data-name="Layer 1"><path class="cls-1" d="M4.65,0H2.51V3.29H4.65A.37.37,0,0,0,5,2.92V.38A.37.37,0,0,0,4.65,0Z"/><path class="cls-2" d="M.38,0A.38.38,0,0,0,0,.38V2.92a.38.38,0,0,0,.38.37H2.51V0Z"/><path class="cls-1" d="M.72.2V.43l0,0a.08.08,0,0,1,0,0H1V.72H.78a.08.08,0,0,1,0,0l0,0V1H.49V.78l0,0a.08.08,0,0,1,0,0H.2V.49H.43a.08.08,0,0,1,0,0l0,0V.2H.72m0,0H.46V.41l0,0,0,0H.17V.75H.41l0,0,0,0V1H.75V.8l0,0s0,0,0,0H1V.46H.8s0,0,0,0l0,0V.17Z"/><polygon class="cls-3" points="1.01 0.49 0.72 0.49 0.72 0.2 0.49 0.2 0.49 0.49 0.2 0.49 0.2 0.72 0.49 0.72 0.49 1.01 0.72 1.01 0.72 0.72 1.01 0.72 1.01 0.49"/><circle class="cls-4" cx="0.61" cy="0.61" r="0.12"/><ellipse class="cls-4" cx="0.48" cy="0.74" rx="0.04" ry="0.05" transform="translate(-0.38 0.55) rotate(-45)"/><ellipse class="cls-4" cx="0.74" cy="0.74" rx="0.05" ry="0.04" transform="translate(-0.3 0.74) rotate(-45)"/><ellipse class="cls-4" cx="0.74" cy="0.48" rx="0.04" ry="0.05" transform="translate(-0.12 0.66) rotate(-45)"/><ellipse class="cls-4" cx="0.48" cy="0.48" rx="0.05" ry="0.04" transform="translate(-0.2 0.48) rotate(-45)"/><path class="cls-4" d="M.61.76A.16.16,0,0,1,.45.61.16.16,0,0,1,.61.45.16.16,0,0,1,.76.61.15.15,0,0,1,.61.76Zm0-.3A.15.15,0,0,0,.46.61.15.15,0,0,0,.61.75.14.14,0,0,0,.75.61.15.15,0,0,0,.61.46Z"/></g></g></svg>