<svg xmlns="http://www.w3.org/2000/svg" viewBox="0 0 4.99 3.27"><defs><style>.cls-1{fill:#ff4b55;}.cls-2{fill:#f5f5f5;}</style></defs><g id="Layer_2" data-name="Layer 2"><g id="Layer_1-2" data-name="Layer 1"><path class="cls-1" d="M4.61,3.27H.37A.38.38,0,0,1,0,2.89V.37A.38.38,0,0,1,.37,0H4.61A.38.38,0,0,1,5,.37V2.89A.38.38,0,0,1,4.61,3.27Z"/><path class="cls-2" d="M3.44,1.29h-.6V.69A.09.09,0,0,0,2.75.6H2.24a.09.09,0,0,0-.09.09v.6h-.6a.09.09,0,0,0-.09.09v.51A.09.09,0,0,0,1.55,2h.6v.6a.09.09,0,0,0,.09.09h.51a.09.09,0,0,0,.09-.09V2h.6a.09.09,0,0,0,.09-.09V1.38A.09.09,0,0,0,3.44,1.29Z"/></g></g></svg>