<svg xmlns="http://www.w3.org/2000/svg" viewBox="0 0 5 3.28"><defs><style>.cls-1{fill:#41479b;}.cls-2{fill:#f5f5f5;}.cls-3{fill:#ff4b55;}</style></defs><g id="Layer_2" data-name="Layer 2"><g id="Layer_1-2" data-name="Layer 1"><path class="cls-1" d="M4.63,0H.37A.38.38,0,0,0,0,.37V2.9a.38.38,0,0,0,.37.38H4.63A.38.38,0,0,0,5,2.9V.37A.38.38,0,0,0,4.63,0Z"/><path class="cls-2" d="M.09,1.64H.24L1,1.11v.53h.44V1.11l.79.53h.15a.09.09,0,0,0,.09-.09V1.48L1.82,1H2.5V.6H1.81L2.5.15V.09A.09.09,0,0,0,2.41,0H2.26L1.47.52V0H1V.52L.26,0A.39.39,0,0,0,.05.19L.69.6H0V1H.69L0,1.48v.07A.09.09,0,0,0,.09,1.64Z"/><polygon class="cls-3" points="2.5 0.69 1.38 0.69 1.38 0 1.12 0 1.12 0.69 0 0.69 0 0.95 1.12 0.95 1.12 1.64 1.38 1.64 1.38 0.95 2.5 0.95 2.5 0.69"/><path class="cls-3" d="M.08.14.79.6H1L.14.08Z"/><path class="cls-3" d="M1.62.6,2.49,0a.1.1,0,0,0-.08,0h0L1.47.6Z"/><path class="cls-3" d="M.87,1,0,1.59a.09.09,0,0,0,.08,0h0L1,1Z"/><path class="cls-3" d="M2.5,1.56,1.69,1H1.53l.92.6A.08.08,0,0,0,2.5,1.56Z"/><path class="cls-2" d="M1.28,2.11l.06.21.21-.08s0,0,0,0l-.12.18.19.11a0,0,0,0,1,0,0l-.22,0,0,.22s0,0,0,0l-.15-.16-.15.16s0,0,0,0l0-.22-.23,0s0,0,0,0l.2-.11L.94,2.27a0,0,0,0,1,0,0l.2.08.07-.21S1.27,2.09,1.28,2.11Z"/><path class="cls-2" d="M3.84.58l0,.11.1,0s0,0,0,0L3.92.75,4,.8s0,0,0,0h-.1V.94a0,0,0,0,1,0,0L3.83.86,3.76,1s0,0,0,0l0-.11H3.65s0,0,0,0l.1-.05L3.68.66s0,0,0,0l.1,0,0-.11S3.84.57,3.84.58Z"/><path class="cls-2" d="M3.13,1.39l0,.1.11,0h0l-.07.09.1.06s0,0,0,0H3.2v.11s0,0,0,0l-.08-.08-.07.08s0,0,0,0l0-.11H2.94s0,0,0,0L3,1.55,3,1.46s0,0,0,0l.1,0,0-.1S3.13,1.38,3.13,1.39Z"/><path class="cls-2" d="M4.51,1l0,.11.11,0s0,0,0,0l-.07.09.1.05a0,0,0,0,1,0,0H4.58V1.4a0,0,0,0,1,0,0L4.5,1.33l-.07.08s0,0,0,0l0-.11H4.32s0,0,0,0l.09-.05-.06-.09s0,0,0,0l.1,0,0-.11S4.51,1,4.51,1Z"/><path class="cls-2" d="M3.84,2.42l0,.11.1,0s0,0,0,0l-.07.09.1.05s0,0,0,0h-.1v.11a0,0,0,0,1,0,0L3.83,2.7l-.07.09s0,0,0,0l0-.11H3.65s0,0,0,0l.1-.05L3.68,2.5s0,0,0,0l.1,0,0-.11Z"/><path class="cls-2" d="M4.09,1.57l0,.08H4s0,0,0,0L4,1.72,4,1.8s0,0,0,0l.07-.05.06.05s0,0,0,0l0-.08.06-.05s0,0,0,0H4.13l0-.08S4.09,1.56,4.09,1.57Z"/></g></g></svg>