<svg xmlns="http://www.w3.org/2000/svg" viewBox="0 0 5 3.28"><defs><style>.cls-1{fill:#41479b;}.cls-2{fill:#f5f5f5;}.cls-3{fill:#ff4b55;}</style></defs><g id="Layer_2" data-name="Layer 2"><g id="Layer_1-2" data-name="Layer 1"><path class="cls-1" d="M4.91,3.28H.09A.09.09,0,0,1,0,3.19V.09A.09.09,0,0,1,.09,0H4.91A.09.09,0,0,1,5,.09v3.1A.09.09,0,0,1,4.91,3.28Z"/><path class="cls-2" d="M5,.09A.09.09,0,0,0,4.91,0H4.53L2.93,1.05V0H2.07V1.05L.47,0H.09A.09.09,0,0,0,0,.09V.31l1.37.9H0v.86H1.37L0,3v.22a.09.09,0,0,0,.09.09H.47l1.6-1v1h.86v-1l1.6,1h.38A.09.09,0,0,0,5,3.19V3l-1.37-.9H5V1.21H3.63L5,.31Z"/><polygon class="cls-3" points="5 1.38 2.76 1.38 2.76 0 2.24 0 2.24 1.38 0 1.38 0 1.9 2.24 1.9 2.24 3.28 2.76 3.28 2.76 1.9 5 1.9 5 1.38"/><path class="cls-3" d="M1.75,2.07,0,3.2a.1.1,0,0,0,.09.08H.2L2.06,2.07Z"/><path class="cls-3" d="M3.38,2.07H3.07l1.85,1.2A.08.08,0,0,0,5,3.19V3.12Z"/><path class="cls-3" d="M0,.18l1.58,1H1.9L.05,0A.08.08,0,0,0,0,.09Z"/><path class="cls-3" d="M3.25,1.21,5,.07A.09.09,0,0,0,4.91,0H4.79L2.93,1.21Z"/></g></g></svg>